<?xml version="1.0" encoding="utf-8"?>
<!-- Generator: Adobe Illustrator 21.1.0, SVG Export Plug-In . SVG Version: 6.00 Build 0)  -->
<svg version="1.1" id="Layer_1" xmlns="http://www.w3.org/2000/svg" xmlns:xlink="http://www.w3.org/1999/xlink" x="0px" y="0px"
	 viewBox="0 0 98 82" style="enable-background:new 0 0 98 82;" xml:space="preserve">
<style type="text/css">
	.st0{clip-path:url(#SVGID_2_);fill:#FFFFFF;}
</style>
<g>
	<defs>
		<path id="SVGID_1_" d="M87.2,60.1V27.4c0-13.5-9.8-24.5-21.8-24.5s-21.8,11-21.8,24.5v24.5v2.7c0,7.4-5,13.6-10.9,13.6
			S21.8,62,21.8,54.6V21.9h10.9L16.3,0.1L-0.1,21.9h10.9v32.7c0,13.5,9.8,24.5,21.8,24.5s21.8-11,21.8-24.5v-2.7V27.4
			c0-7.4,5-13.6,10.9-13.6S76.2,20,76.2,27.4v32.7H65.3l16.3,21.8l16.4-21.8H87.2z"/>
	</defs>
	<use xlink:href="#SVGID_1_"  style="overflow:visible;fill-rule:evenodd;clip-rule:evenodd;fill:#FFFFFF;"/>
	<clipPath id="SVGID_2_">
		<use xlink:href="#SVGID_1_"  style="overflow:visible;"/>
	</clipPath>
	<rect x="-13.7" y="-13.5" class="st0" width="125.3" height="109"/>
</g>
</svg>
