<?xml version="1.0" encoding="utf-8"?>
<!-- Generator: Adobe Illustrator 21.1.0, SVG Export Plug-In . SVG Version: 6.00 Build 0)  -->
<svg version="1.1" id="Layer_1" xmlns="http://www.w3.org/2000/svg" xmlns:xlink="http://www.w3.org/1999/xlink" x="0px" y="0px"
	 viewBox="0 0 495 392" style="enable-background:new 0 0 495 392;" xml:space="preserve">
<style type="text/css">
	.st0{fill:none;stroke:#666666;stroke-width:0.5;stroke-miterlimit:10;}
	.st1{fill:none;stroke:#666666;stroke-width:0.5307;stroke-miterlimit:10;}
	.st2{font-family:'Avenir-Roman';}
	.st3{font-size:8.4px;}
	.st4{font-size:8.585px;}
	.st5{font-size:13.65px;}
	.st6{font-size:12.6px;}
	.st7{fill:none;stroke:#00AEB7;stroke-width:2;stroke-linecap:round;stroke-miterlimit:10;}
	.st8{fill:none;stroke:#FF931E;stroke-width:2;stroke-linecap:round;stroke-miterlimit:10;}
	.st9{fill:none;stroke:#3FA9F5;stroke-width:2;stroke-linecap:round;stroke-miterlimit:10;}
	.st10{fill:none;stroke:#FF1D25;stroke-width:2;stroke-linecap:round;stroke-miterlimit:10;}
	.st11{fill:none;stroke:#202020;stroke-width:2;stroke-linecap:round;stroke-miterlimit:10;}
	.st12{fill:none;stroke:#FF7BAC;stroke-width:2;stroke-linecap:round;stroke-miterlimit:10;}
	.st13{fill:none;stroke:#7AC943;stroke-width:2;stroke-linecap:round;stroke-miterlimit:10;}
	.st14{fill:none;stroke:#FF931E;stroke-width:4;stroke-linecap:round;stroke-miterlimit:10;}
	.st15{fill:none;stroke:#3FA9F5;stroke-width:4;stroke-linecap:round;stroke-miterlimit:10;}
	.st16{fill:none;stroke:#FF1D25;stroke-width:4;stroke-linecap:round;stroke-miterlimit:10;}
	.st17{fill:none;stroke:#202020;stroke-width:4;stroke-linecap:round;stroke-miterlimit:10;}
	.st18{fill:none;stroke:#FF7BAC;stroke-width:4;stroke-linecap:round;stroke-miterlimit:10;}
	.st19{fill:none;stroke:#00AEB7;stroke-width:4;stroke-linecap:round;stroke-miterlimit:10;}
	.st20{fill:none;stroke:#7AC943;stroke-width:4;stroke-linecap:round;stroke-miterlimit:10;}
</style>
<line class="st0" x1="33.2" y1="323.7" x2="485.7" y2="323.7"/>
<line class="st1" x1="45.1" y1="323.7" x2="45.1" y2="315"/>
<line class="st1" x1="70.3" y1="323.7" x2="70.3" y2="315"/>
<line class="st1" x1="95.4" y1="323.7" x2="95.4" y2="315"/>
<line class="st1" x1="120.6" y1="323.7" x2="120.6" y2="315"/>
<line class="st1" x1="145.7" y1="323.7" x2="145.7" y2="315"/>
<line class="st1" x1="170.9" y1="323.7" x2="170.9" y2="315"/>
<line class="st1" x1="196" y1="323.7" x2="196" y2="315"/>
<line class="st1" x1="221.2" y1="323.7" x2="221.2" y2="315"/>
<line class="st1" x1="246.3" y1="323.7" x2="246.3" y2="315"/>
<line class="st1" x1="271.5" y1="323.7" x2="271.5" y2="315"/>
<line class="st1" x1="296.6" y1="323.7" x2="296.6" y2="315"/>
<line class="st1" x1="321.8" y1="323.7" x2="321.8" y2="315"/>
<line class="st1" x1="346.9" y1="323.7" x2="346.9" y2="315"/>
<line class="st1" x1="372.1" y1="323.7" x2="372.1" y2="315"/>
<line class="st1" x1="397.2" y1="323.7" x2="397.2" y2="315"/>
<line class="st1" x1="422.4" y1="323.7" x2="422.4" y2="315"/>
<line class="st1" x1="447.5" y1="323.7" x2="447.5" y2="315"/>
<line class="st1" x1="472.7" y1="323.7" x2="472.7" y2="315"/>
<text transform="matrix(1.0343 0 0 1 42.3379 335.4336)" class="st2 st3">6</text>
<text transform="matrix(1.0343 0 0 1 8.5864 335.4336)" class="st2 st3">time</text>
<text transform="matrix(1.0343 0 0 1 68.3379 335.4336)" class="st2 st3">7</text>
<text transform="matrix(1.2264 0 0 1 92.2529 335.5918)" class="st2 st4">8</text>
<text transform="matrix(1.0343 0 0 1 118.3379 335.4336)" class="st2 st3">9</text>
<text transform="matrix(0.8655 0 0 1 140.0586 335.4336)" class="st2 st3">10</text>
<text transform="matrix(0.8655 0 0 1 166.0586 335.4336)" class="st2 st3">11</text>
<text transform="matrix(0.8655 0 0 1 192.0586 335.4336)" class="st2 st3">12</text>
<text transform="matrix(0.8655 0 0 1 217.0586 335.4336)" class="st2 st3">13</text>
<text transform="matrix(0.8655 0 0 1 242.0586 335.4336)" class="st2 st3">14</text>
<text transform="matrix(0.8655 0 0 1 267.0586 335.4336)" class="st2 st3">15</text>
<text transform="matrix(0.8655 0 0 1 292.0586 335.4336)" class="st2 st3">16</text>
<text transform="matrix(0.8655 0 0 1 318.0586 335.4336)" class="st2 st3">17</text>
<text transform="matrix(0.8655 0 0 1 342.0586 335.4336)" class="st2 st3">18</text>
<text transform="matrix(0.8655 0 0 1 368.0586 335.4336)" class="st2 st3">19</text>
<text transform="matrix(0.8655 0 0 1 393.0586 335.4336)" class="st2 st3">20</text>
<text transform="matrix(0.8655 0 0 1 418.0586 335.4336)" class="st2 st3">21</text>
<text transform="matrix(0.8655 0 0 1 443.0586 335.4336)" class="st2 st3">22</text>
<text transform="matrix(0.8655 0 0 1 468.0586 335.4336)" class="st2 st3">23</text>
<text transform="matrix(1.0343 0 0 1 10.3281 251.791)" class="st2 st5">20</text>
<text transform="matrix(1.0343 0 0 1 10.3281 174.1494)" class="st2 st5">30</text>
<text transform="matrix(1.0343 0 0 1 10.3281 96.5078)" class="st2 st5">40</text>
<text transform="matrix(1.0343 0 0 1 4.5088 20.8662)" class="st2 st6">min</text>
<line class="st0" x1="33.2" y1="323.7" x2="33.2" y2="13.2"/>
<line class="st0" x1="33.2" y1="323.7" x2="44.5" y2="323.7"/>
<line class="st0" x1="33.2" y1="246.1" x2="44.5" y2="246.1"/>
<line class="st0" x1="33.2" y1="168.5" x2="44.5" y2="168.5"/>
<line class="st0" x1="33.2" y1="90.8" x2="44.5" y2="90.8"/>
<line class="st0" x1="33.2" y1="13.2" x2="44.5" y2="13.2"/>
<line class="st7" x1="70.9" y1="300.5" x2="45.8" y2="300.5"/>
<line class="st7" x1="96.1" y1="300.5" x2="70.9" y2="300.5"/>
<line class="st7" x1="121.2" y1="299.7" x2="96.1" y2="300.5"/>
<line class="st7" x1="146.4" y1="298.1" x2="121.2" y2="299.7"/>
<line class="st7" x1="171.5" y1="294.2" x2="146.4" y2="298.1"/>
<line class="st7" x1="196.6" y1="286.5" x2="171.5" y2="294.2"/>
<line class="st7" x1="221.8" y1="281.8" x2="196.6" y2="286.5"/>
<line class="st7" x1="246.9" y1="284.1" x2="221.8" y2="281.8"/>
<line class="st7" x1="272" y1="279.5" x2="246.9" y2="284.1"/>
<line class="st7" x1="297.2" y1="277.2" x2="272" y2="279.5"/>
<line class="st7" x1="322.3" y1="269.4" x2="297.2" y2="277.2"/>
<line class="st7" x1="347.4" y1="270.9" x2="322.3" y2="269.4"/>
<line class="st7" x1="371.6" y1="278.7" x2="346.4" y2="270.9"/>
<line class="st7" x1="396.7" y1="280.3" x2="371.6" y2="278.7"/>
<line class="st7" x1="421.9" y1="288" x2="396.7" y2="280.3"/>
<line class="st7" x1="447" y1="295.8" x2="421.9" y2="288"/>
<line class="st7" x1="472.1" y1="300.5" x2="447" y2="295.8"/>
<line class="st8" x1="70.9" y1="260.9" x2="45.8" y2="296.6"/>
<line class="st8" x1="96.1" y1="232.1" x2="70.9" y2="260.9"/>
<line class="st8" x1="121.2" y1="264.7" x2="96.1" y2="232.1"/>
<line class="st8" x1="146.4" y1="289.6" x2="121.2" y2="264.7"/>
<line class="st8" x1="171.5" y1="291.9" x2="146.4" y2="289.6"/>
<line class="st8" x1="196.6" y1="284.9" x2="171.5" y2="291.9"/>
<line class="st8" x1="221.8" y1="270.2" x2="196.6" y2="284.9"/>
<line class="st8" x1="246.9" y1="237.6" x2="221.8" y2="270.2"/>
<line class="st8" x1="272" y1="202.6" x2="246.9" y2="237.6"/>
<line class="st8" x1="297.2" y1="180.9" x2="272" y2="202.6"/>
<line class="st8" x1="322.3" y1="190.2" x2="297.2" y2="180.9"/>
<line class="st8" x1="347.4" y1="211.2" x2="322.3" y2="190.2"/>
<line class="st8" x1="371.6" y1="252.3" x2="346.4" y2="211.2"/>
<line class="st8" x1="396.7" y1="286.5" x2="371.6" y2="252.3"/>
<line class="st8" x1="421.9" y1="295.8" x2="396.7" y2="286.5"/>
<line class="st8" x1="447" y1="298.1" x2="421.9" y2="295.8"/>
<line class="st8" x1="472.1" y1="300.5" x2="447" y2="298.1"/>
<line class="st9" x1="70.9" y1="240.7" x2="45.8" y2="295.8"/>
<line class="st9" x1="96.1" y1="198" x2="70.9" y2="240.7"/>
<line class="st9" x1="121.2" y1="238.3" x2="96.1" y2="198"/>
<line class="st9" x1="146.4" y1="280.3" x2="121.2" y2="238.3"/>
<line class="st9" x1="171.5" y1="286.5" x2="146.4" y2="280.3"/>
<line class="st9" x1="196.6" y1="277.9" x2="171.5" y2="286.5"/>
<line class="st9" x1="221.8" y1="254.6" x2="196.6" y2="277.9"/>
<line class="st9" x1="246.9" y1="205" x2="221.8" y2="254.6"/>
<line class="st9" x1="272" y1="152.2" x2="246.9" y2="205"/>
<line class="st9" x1="297.2" y1="107.9" x2="272" y2="152.2"/>
<line class="st9" x1="322.3" y1="107.9" x2="297.2" y2="107.9"/>
<line class="st9" x1="347.4" y1="138.2" x2="322.3" y2="107.9"/>
<line class="st9" x1="371.6" y1="208.1" x2="346.4" y2="138.2"/>
<line class="st9" x1="396.7" y1="263.2" x2="371.6" y2="208.1"/>
<line class="st9" x1="421.9" y1="291.1" x2="396.7" y2="263.2"/>
<line class="st9" x1="447" y1="298.1" x2="421.9" y2="291.1"/>
<line class="st9" x1="472.1" y1="300.5" x2="447" y2="298.1"/>
<line class="st10" x1="70.9" y1="243.8" x2="45.8" y2="295.8"/>
<line class="st10" x1="96.1" y1="214.3" x2="70.9" y2="243.8"/>
<line class="st10" x1="121.2" y1="240.7" x2="96.1" y2="214.3"/>
<line class="st10" x1="146.4" y1="279.5" x2="121.2" y2="240.7"/>
<line class="st10" x1="171.5" y1="284.1" x2="146.4" y2="279.5"/>
<line class="st10" x1="196.6" y1="270.9" x2="171.5" y2="284.1"/>
<line class="st10" x1="221.8" y1="245.3" x2="196.6" y2="270.9"/>
<line class="st10" x1="246.9" y1="192.5" x2="221.8" y2="245.3"/>
<line class="st10" x1="272" y1="147.5" x2="246.9" y2="192.5"/>
<line class="st10" x1="297.2" y1="95.5" x2="272" y2="147.5"/>
<line class="st10" x1="322.3" y1="86.9" x2="297.2" y2="95.5"/>
<line class="st10" x1="347.4" y1="116.4" x2="322.3" y2="86.9"/>
<line class="st10" x1="371.6" y1="193.3" x2="346.4" y2="116.4"/>
<line class="st10" x1="396.7" y1="253.1" x2="371.6" y2="193.3"/>
<line class="st10" x1="421.9" y1="287.3" x2="396.7" y2="253.1"/>
<line class="st10" x1="447" y1="295.8" x2="421.9" y2="287.3"/>
<line class="st10" x1="472.1" y1="299.7" x2="447" y2="295.8"/>
<line class="st11" x1="70.9" y1="246.9" x2="45.8" y2="295.8"/>
<line class="st11" x1="96.1" y1="211.9" x2="70.9" y2="246.9"/>
<line class="st11" x1="121.2" y1="243" x2="96.1" y2="211.9"/>
<line class="st11" x1="146.4" y1="277.9" x2="121.2" y2="243"/>
<line class="st11" x1="171.5" y1="283.4" x2="146.4" y2="277.9"/>
<line class="st11" x1="196.6" y1="267.1" x2="171.5" y2="283.4"/>
<line class="st11" x1="221.8" y1="239.9" x2="196.6" y2="267.1"/>
<line class="st11" x1="246.9" y1="182.4" x2="221.8" y2="239.9"/>
<line class="st11" x1="272" y1="135.1" x2="246.9" y2="182.4"/>
<line class="st11" x1="297.2" y1="104.8" x2="272" y2="135.1"/>
<line class="st11" x1="322.3" y1="97.8" x2="297.2" y2="104.8"/>
<line class="st11" x1="347.4" y1="121.1" x2="322.3" y2="97.8"/>
<line class="st11" x1="371.6" y1="194.1" x2="346.4" y2="121.1"/>
<line class="st11" x1="396.7" y1="240.3" x2="371.6" y2="194.1"/>
<line class="st11" x1="421.9" y1="276.4" x2="396.7" y2="240.3"/>
<line class="st11" x1="447" y1="290.4" x2="421.9" y2="276.4"/>
<line class="st11" x1="472.1" y1="298.1" x2="447" y2="290.4"/>
<line class="st12" x1="70.9" y1="269.4" x2="45.8" y2="297.3"/>
<line class="st12" x1="96.1" y1="246.1" x2="70.9" y2="269.4"/>
<line class="st12" x1="121.2" y1="262.4" x2="96.1" y2="246.1"/>
<line class="st12" x1="146.4" y1="279.5" x2="121.2" y2="262.4"/>
<line class="st12" x1="171.5" y1="273.3" x2="146.4" y2="279.5"/>
<line class="st12" x1="196.6" y1="247.7" x2="171.5" y2="273.3"/>
<line class="st12" x1="221.8" y1="209.6" x2="196.6" y2="247.7"/>
<line class="st12" x1="246.9" y1="170.8" x2="221.8" y2="209.6"/>
<line class="st12" x1="272" y1="140.5" x2="246.9" y2="170.8"/>
<line class="st12" x1="297.2" y1="124.2" x2="272" y2="140.5"/>
<line class="st12" x1="322.3" y1="133.5" x2="297.2" y2="124.2"/>
<line class="st12" x1="347.4" y1="159.9" x2="322.3" y2="133.5"/>
<line class="st12" x1="371.6" y1="216.6" x2="346.4" y2="159.9"/>
<line class="st12" x1="396.7" y1="253.1" x2="371.6" y2="216.6"/>
<line class="st12" x1="421.9" y1="277.2" x2="396.7" y2="253.1"/>
<line class="st12" x1="447" y1="286.5" x2="421.9" y2="277.2"/>
<line class="st12" x1="472.1" y1="295.8" x2="447" y2="286.5"/>
<line class="st13" x1="70.9" y1="299.7" x2="45.8" y2="298.9"/>
<line class="st13" x1="96.1" y1="298.9" x2="70.9" y2="299.7"/>
<line class="st13" x1="121.2" y1="296.6" x2="96.1" y2="298.9"/>
<line class="st13" x1="146.4" y1="288.8" x2="121.2" y2="296.6"/>
<line class="st13" x1="171.5" y1="272.5" x2="146.4" y2="288.8"/>
<line class="st13" x1="196.6" y1="258.5" x2="171.5" y2="272.5"/>
<line class="st13" x1="221.8" y1="252.3" x2="196.6" y2="258.5"/>
<line class="st13" x1="246.9" y1="242.2" x2="221.8" y2="252.3"/>
<line class="st13" x1="272" y1="236.8" x2="246.9" y2="242.2"/>
<line class="st13" x1="297.2" y1="230.6" x2="272" y2="236.8"/>
<line class="st13" x1="322.3" y1="221.3" x2="297.2" y2="230.6"/>
<line class="st13" x1="347.4" y1="227.9" x2="322.3" y2="221.3"/>
<line class="st13" x1="371.6" y1="247.7" x2="346.4" y2="227.9"/>
<line class="st13" x1="396.7" y1="270.2" x2="371.6" y2="247.7"/>
<line class="st13" x1="421.9" y1="281.8" x2="396.7" y2="270.2"/>
<line class="st13" x1="447" y1="281" x2="421.9" y2="281.8"/>
<line class="st13" x1="472.1" y1="292.7" x2="447" y2="281"/>
<g>
	<line class="st14" x1="33.7" y1="359.9" x2="47.9" y2="359.9"/>
	<text transform="matrix(1.0343 0 0 1 53.9449 363.7939)" class="st2 st6">Mon</text>
</g>
<g>
	<line class="st15" x1="100.8" y1="359.9" x2="115" y2="359.9"/>
	<text transform="matrix(1.0343 0 0 1 120.952 363.7939)" class="st2 st6">Tue</text>
</g>
<g>
	<line class="st16" x1="161.7" y1="359.9" x2="175.9" y2="359.9"/>
	<text transform="matrix(1.0343 0 0 1 181.9248 363.7939)" class="st2 st6">Wed</text>
</g>
<g>
	<line class="st17" x1="229.1" y1="359.9" x2="243.3" y2="359.9"/>
	<text transform="matrix(1.0343 0 0 1 249.2706 363.7939)" class="st2 st6">Thu</text>
</g>
<g>
	<line class="st18" x1="291.2" y1="359.9" x2="305.4" y2="359.9"/>
	<text transform="matrix(1.0343 0 0 1 311.4426 363.7939)" class="st2 st6">Fri</text>
</g>
<g>
	<line class="st19" x1="405.2" y1="359.5" x2="419.4" y2="359.5"/>
	<text transform="matrix(1.0343 0 0 1 425.3987 363.7939)" class="st2 st6">Sun</text>
</g>
<g>
	<line class="st20" x1="346.4" y1="359.9" x2="360.6" y2="359.9"/>
	<text transform="matrix(1.0343 0 0 1 366.603 363.7939)" class="st2 st6">Sat</text>
</g>
<g id="Layer_2">
</g>
</svg>
