<?xml version="1.0" encoding="utf-8"?>
<!-- Generator: Adobe Illustrator 21.1.0, SVG Export Plug-In . SVG Version: 6.00 Build 0)  -->
<svg version="1.1" id="Layer_1" xmlns="http://www.w3.org/2000/svg" xmlns:xlink="http://www.w3.org/1999/xlink" x="0px" y="0px"
	 viewBox="0 0 300 43" style="enable-background:new 0 0 300 43;" xml:space="preserve">
<style type="text/css">
	.st0{fill:#FFFFFF;}
	.st1{clip-path:url(#SVGID_2_);fill:#FFD800;}
	.st2{fill:#EF0059;}
</style>
<g>
	<path class="st0" d="M92.7,11.4H79.1V1.1h38.8v10.3h-13.6v30.5H92.7V11.4z"/>
	<path class="st0" d="M139.7,29.7h-7.4v12.2h-11.2V1.1h20.9c14.7,0,17.2,6.4,17.2,14c0,5.1-1.3,10.5-7.9,13.1l7.5,13.7h-12.3
		L139.7,29.7z M141.6,20.2c4.4,0,6-0.9,6-4.6c0-3.9-1.4-4.8-6-4.8h-9.2v9.4H141.6z"/>
	<path class="st0" d="M176.8,0.8h11.7l16.6,41.1h-11.9l-2.1-5.3h-17.5l-2.1,5.3h-11.2L176.8,0.8z M187.5,27.2l-5.1-13l-5.1,13H187.5
		z"/>
	<path class="st0" d="M199.8,1.1h12.1L222.1,28l10.1-26.9H244l-16.3,41.1H216L199.8,1.1z"/>
	<path class="st0" d="M247.5,1.1H259v40.8h-11.5V1.1z"/>
	<path class="st0" d="M263.8,33.5l21-22.1h-20V1.1h34.7v9.3L278.8,32H300v9.9h-36.2V33.5z"/>
</g>
<g>
	<g>
		<defs>
			<path id="SVGID_1_" d="M0.8,40.1c0,0.6,0.1,1.3,0.1,1.9h22c0-10,8.2-18.1,18.3-18.1c10.1,0,18.3,8.1,18.3,18.1h22
				c0-0.6,0.1-1.3,0.1-1.9C81.6,18,63.5,0,41.2,0C18.9,0,0.8,18,0.8,40.1"/>
		</defs>
		<clipPath id="SVGID_2_">
			<use xlink:href="#SVGID_1_"  style="overflow:visible;"/>
		</clipPath>
		<rect x="0.8" y="0" class="st1" width="80.8" height="42"/>
	</g>
	<path class="st2" d="M81.6,40.1c0-15.2-8.5-28.4-21-35.2l-11,21c5.9,3,9.9,9.1,9.9,16.1h22C81.5,41.4,81.6,40.7,81.6,40.1"/>
</g>
<path class="st0" d="M41.2,42.5L41.2,42.5c-2-1-2.7-3.4-1.7-5.4L61.4,3.4l0,0L46.6,40.8C45.6,42.7,43.2,43.5,41.2,42.5z"/>
</svg>
